<svg width="29" height="29" viewBox="0 0 29 29" fill="none" xmlns="http://www.w3.org/2000/svg">
<path d="M22.6381 0.818813L14.4558 9.00105L6.27361 0.818812C5.26958 -0.185216 3.64109 -0.185216 2.63706 0.818813L0.818784 2.63709C-0.185244 3.64112 -0.185244 5.26961 0.818784 6.27364L9.00102 14.4559L0.818784 22.6381C-0.185244 23.6421 -0.185244 25.2706 0.818784 26.2747L2.63706 28.0929C3.64109 29.097 5.26958 29.097 6.27361 28.0929L14.4558 19.9107L22.6381 28.0929C23.6421 29.097 25.2706 29.097 26.2746 28.0929L28.0929 26.2747C29.0969 25.2706 29.0969 23.6421 28.0929 22.6381L19.9107 14.4559L28.0929 6.27364C29.0969 5.26961 29.0969 3.64112 28.0929 2.63709L26.2746 0.818812C25.2706 -0.185216 23.6421 -0.185215 22.6381 0.818813Z" fill="#DADADA"/>
</svg>
