<svg width="155" height="30" viewBox="0 0 155 30" fill="none" xmlns="http://www.w3.org/2000/svg">
<g clip-path="url(#clip0_1_11)">
<path d="M18.7228 0.0030899H11.0641L0 29.3622H7.71274L9.38842 24.7614L9.39614 24.7336H20.2888L21.7266 29.3606H29.4656L18.7228 0.0030899ZM11.0147 19.4162L14.7861 7.02394L18.6363 19.4162H11.0147Z" fill="black"/>
<path d="M43.4255 0.0432434V9.25714C41.0595 6.91583 37.322 7.06255 37.322 7.06255C27.8286 8.02008 28.6255 19.268 28.6255 19.268C28.6255 27.8842 34.888 29.9985 38.1591 29.9985C41.4301 29.9985 43.7035 27.4054 43.7035 27.4054V29.2803H49.6463V0.162162L43.424 0.0432434H43.4255ZM39.756 25.3189C37.39 25.3189 35.0765 24.2286 35.0765 18.5313C35.0765 12.834 37.807 11.81 39.756 11.81C41.705 11.81 43.4656 14.0958 43.4656 18.5313C43.4656 22.366 41.7066 25.3189 39.756 25.3189Z" fill="black"/>
<path d="M66.2703 0.0030899V14.2564C65.2587 28.8834 52.4417 29.5737 52.4417 29.5737V23.4579C58.0124 22.1838 58.0402 16.488 57.8286 14.2564H52.4417V0.0030899H66.2703Z" fill="#E4191B"/>
<path d="M87.8626 23.3776V29.5212H76.3738V29.5336H69.0348V0.0154419H76.3738V23.3776H87.8626Z" fill="black"/>
<path d="M97.5413 0.0030899H90.0958V29.4672H97.5413V0.0030899Z" fill="black"/>
<path d="M124.241 0.0030888V29.4672H117.487V29.4595L117.021 29.4672L106.477 11.1768V29.4672H99.6695V0.0030888H105.88L106.834 0L117.487 18.5359V0.0030888H124.241Z" fill="black"/>
<path d="M154.158 29.6803H146.02L138.015 16.383C138.015 16.383 133.575 20.2919 133.575 23.8564V29.4656H126.822V0.0030899H133.575V12.1699L144.664 0.162163H153.361L143.149 11.1722L154.159 29.6803H154.158Z" fill="black"/>
<path d="M133.575 29.4672V29.6015H129.427V29.4672H133.575Z" fill="black"/>
</g>
<defs>
<clipPath id="clip0_1_11">
<rect width="154.158" height="30" fill="white"/>
</clipPath>
</defs>
</svg>
