<?xml version="1.0" encoding="UTF-8"?>
<svg id="Ebene_1" data-name="Ebene 1" xmlns="http://www.w3.org/2000/svg" viewBox="0 0 195.14 79.83">
  <defs>
    <style>
      .cls-1 {
        fill: #bc3748;
      }

      .cls-1, .cls-2 {
        stroke-width: 0px;
      }

      .cls-2 {
        fill: #fff;
      }
    </style>
  </defs>
  <rect class="cls-1" width="195.14" height="79.83" rx="14.78" ry="14.78"/>
  <path class="cls-2" d="M40.88,44.01v11c0,3.6-.8,6.2-2.41,7.81s-4.16,2.34-7.81,2.34h-3.12c-3.64,0-6.27-.78-7.88-2.34-1.56-1.61-2.34-4.21-2.34-7.81v-30.51c0-3.64.78-6.24,2.34-7.81,1.61-1.56,4.23-2.34,7.88-2.34h3.12c3.64,0,6.24.78,7.81,2.34,1.61,1.56,2.41,4.16,2.41,7.81v11.71l-9.65-1.06v-11c0-.24-.12-.35-.35-.35h-3.55c-.24,0-.35.12-.35.35v31.22c0,.24.12.35.35.35h3.55c.24,0,.35-.12.35-.35v-11.35h9.65ZM45.08,64.59V24.35h-1.35l.99-9.44h10.01v21.57h3.9V14.92h9.65v49.67h-9.65v-18.66h-3.9v18.66h-9.65ZM95.35,54.73c0,3.6-.8,6.2-2.41,7.81s-4.16,2.34-7.81,2.34h-3.12c-3.64,0-6.27-.78-7.88-2.34-1.56-1.61-2.34-4.21-2.34-7.81v-29.95c0-3.64.78-6.24,2.34-7.81,1.61-1.56,4.23-2.34,7.88-2.34h3.12c3.64,0,6.24.78,7.81,2.34,1.61,1.56,2.41,4.16,2.41,7.81v29.95ZM81.8,24.07c-.24,0-.35.12-.35.35v30.66c0,.24.12.35.35.35h3.55c.24,0,.35-.12.35-.35v-30.66c0-.24-.12-.35-.35-.35h-3.55ZM123.81,54.73c0,3.6-.8,6.2-2.41,7.81-1.56,1.56-4.16,2.34-7.81,2.34h-3.83c-3.64,0-6.27-.78-7.88-2.34-1.56-1.61-2.34-4.21-2.34-7.81v-30.37h-1.35l.99-9.44h10.01v40.16c0,.24.12.35.35.35h4.26c.24,0,.35-.12.35-.35V14.92h9.65v39.81ZM127.61,64.59V24.35h-1.35l.99-9.44h10.01v12.99l6.1-12.99h9.22l-9.72,20.72,11,28.95h-9.23l-7.38-19.44v19.44h-9.65ZM177.82,54.73c0,3.6-.8,6.2-2.41,7.81-1.56,1.56-4.16,2.34-7.81,2.34h-3.12c-3.64,0-6.27-.78-7.88-2.34-1.56-1.61-2.34-4.21-2.34-7.81v-29.95c0-3.64.78-6.24,2.34-7.81,1.61-1.56,4.23-2.34,7.88-2.34h3.12c3.64,0,6.24.78,7.81,2.34,1.61,1.56,2.41,4.16,2.41,7.81v29.95ZM164.26,24.07c-.24,0-.35.12-.35.35v30.66c0,.24.12.35.35.35h3.55c.24,0,.35-.12.35-.35v-30.66c0-.24-.12-.35-.35-.35h-3.55Z"/>
</svg>