<svg width="133" height="54" viewBox="0 0 133 54" fill="none" xmlns="http://www.w3.org/2000/svg">
<g clip-path="url(#clip0_166_540)">
<path d="M10.0557 0H122.671C128.227 0 132.727 4.47688 132.727 10.0017V43.9983C132.727 49.5231 128.227 54 122.671 54H10.0557C4.5 54 0 49.5231 0 43.9983V10.0017C0 4.47688 4.5 0 10.0557 0Z" fill="#3A3A3A"/>
<path d="M38.7046 8.7226V45.2697H30.3981V20.5967L27.0771 45.2697H21.1824L17.6918 21.1592V45.2697H9.36987V8.7226H21.6678C22.03 10.9187 22.4075 13.5077 22.7928 16.4897L24.1413 25.7825L26.3219 8.7149H38.6892L38.7046 8.7226Z" fill="white"/>
<path d="M58.9469 8.7226L64.3793 45.2697H54.6704L54.1618 38.6969H50.7637L50.1935 45.2697H40.369L45.2158 8.7226H58.9546H58.9469ZM53.9075 32.2243C53.4298 28.0865 52.9444 22.97 52.4589 16.875C51.488 23.8716 50.8793 28.988 50.6327 32.2243H53.9075Z" fill="white"/>
<path d="M82.5873 8.7226V16.0351H76.9469V45.2697H67.4461V16.0351H61.8288V8.7226H82.595H82.5873Z" fill="white"/>
<path d="M84.7526 8.7226H100.603V16.0351H94.2611V22.9623H100.202V29.9127H94.2611V37.9495H101.235V45.262H84.7526V8.7226Z" fill="white"/>
<path d="M124.104 19.7877H115.274V17.0753C115.274 15.8116 115.158 15.0026 114.935 14.6635C114.711 14.3168 114.334 14.1473 113.81 14.1473C113.24 14.1473 112.808 14.3784 112.515 14.8485C112.223 15.3185 112.076 16.0197 112.076 16.9752C112.076 18.1926 112.238 19.1173 112.569 19.7337C112.885 20.3502 113.779 21.0976 115.259 21.9683C119.489 24.4803 122.155 26.5377 123.249 28.1481C124.351 29.7586 124.898 32.3553 124.898 35.9384C124.898 38.5428 124.59 40.4615 123.981 41.6943C123.372 42.9272 122.193 43.9598 120.452 44.7997C118.711 45.6396 116.676 46.0557 114.357 46.0557C111.814 46.0557 109.641 45.5779 107.846 44.607C106.051 43.6438 104.872 42.4187 104.317 40.9238C103.762 39.4289 103.485 37.3176 103.485 34.5822V32.1858H112.315V36.6318C112.315 38.0034 112.438 38.8818 112.685 39.2748C112.932 39.6678 113.371 39.8604 114.003 39.8604C114.634 39.8604 115.104 39.6139 115.413 39.113C115.721 38.6122 115.875 37.8801 115.875 36.9015C115.875 34.7517 115.582 33.3416 114.997 32.6789C114.396 32.0163 112.908 30.9144 110.551 29.3579C108.185 27.7937 106.621 26.6533 105.858 25.9521C105.087 25.2432 104.455 24.2646 103.947 23.0163C103.446 21.768 103.192 20.1729 103.192 18.2312C103.192 15.4341 103.546 13.3844 104.263 12.0899C104.979 10.7954 106.135 9.78596 107.73 9.05394C109.325 8.32192 111.252 7.95976 113.509 7.95976C115.975 7.95976 118.079 8.36045 119.82 9.15411C121.562 9.95548 122.71 10.9572 123.272 12.167C123.835 13.3767 124.12 15.4341 124.12 18.339V19.7877H124.104Z" fill="white"/>
</g>
<defs>
<clipPath id="clip0_166_540">
<rect width="132.727" height="54" fill="white"/>
</clipPath>
</defs>
</svg>
