<svg width="96" height="45" viewBox="0 0 96 45" fill="none" xmlns="http://www.w3.org/2000/svg">
<path d="M60.5419 26.4309C59.8087 26.741 58.8013 27.0511 57.5199 27.3611C56.2367 27.6712 54.652 27.8254 52.7658 27.8254C51.1023 27.8254 49.6667 27.6147 48.4555 27.1915C47.2442 26.7684 46.2369 26.0934 45.4334 25.1631C44.6299 24.2329 44.0389 23.0439 43.6586 21.5929C43.2782 20.1418 43.0881 18.3892 43.0881 16.3317C43.0881 12.2475 43.8556 9.3094 45.3906 7.52085C46.9256 5.73229 49.3275 4.83801 52.5962 4.83801C54.3145 4.83801 55.7159 5.07786 56.8021 5.55583C57.8865 6.03552 58.7379 6.68996 59.3581 7.52085C59.9783 8.35174 60.3997 9.33853 60.6259 10.4795C60.8503 11.6205 60.9634 12.854 60.9634 14.1765C60.9634 14.4592 60.9497 14.8104 60.9205 15.2336C60.8914 15.6567 60.8417 16.0782 60.7732 16.5013C60.703 16.9245 60.6259 17.3254 60.5402 17.7057C60.4545 18.086 60.3706 18.3755 60.2867 18.5725H49.6375C49.6375 20.0099 49.9819 21.0104 50.6723 21.5723C51.3627 22.136 52.454 22.4169 53.9479 22.4169C55.3287 22.4169 56.3772 22.3964 57.0967 22.3535C57.8145 22.3107 58.4416 22.2901 58.9778 22.2901C59.5414 22.2901 59.9423 22.4238 60.1821 22.691C60.422 22.96 60.5419 23.3318 60.5419 23.8114V26.4309ZM54.9638 14.4712C54.9638 12.7255 54.7874 11.5194 54.4362 10.8581C54.0832 10.1968 53.4425 9.86447 52.514 9.86447C51.3867 9.86447 50.6329 10.2174 50.2526 10.9215C49.8723 11.6256 49.6684 12.8094 49.6393 14.4712H54.9638Z" fill="#0B7F94"/>
<path d="M75.7138 27.0219C74.8692 27.2755 74.1 27.4588 73.4113 27.5718C72.7209 27.6832 71.9671 27.7414 71.1499 27.7414C70.0226 27.7414 69.0153 27.6284 68.1279 27.404C67.2404 27.1795 66.4798 26.7769 65.8459 26.1996C65.212 25.6222 64.7255 24.8479 64.388 23.8748C64.0505 22.9034 63.8809 21.6699 63.8809 20.1761V10.7947H63.0363C61.993 10.7947 61.4722 10.3013 61.4722 9.31624V5.34338H64.1344L64.4719 0.0188293H69.3751C70.4167 0.0188293 70.9392 0.512224 70.9392 1.4973V5.34338H74.1514C75.193 5.34338 75.7155 5.83678 75.7155 6.82185V10.7947H70.9392V20.0493C70.9392 21.5432 71.6005 22.2884 72.9248 22.2884H74.1497C75.1913 22.2884 75.7138 22.7818 75.7138 23.7669V27.0202V27.0219Z" fill="#0B7F94"/>
<path d="M82.7292 27.529C80.7008 27.529 79.1435 26.9243 78.0591 25.7113C76.9747 24.5001 76.4316 22.7818 76.4316 20.5547C76.4316 19.0334 76.6783 17.8153 77.1717 16.8988C77.6651 15.9839 78.3195 15.2935 79.1367 14.8275C79.9539 14.3633 80.8824 14.06 81.9257 13.9196C82.9673 13.7791 84.0535 13.7088 85.1791 13.7088H87.7574V12.4411C87.7574 11.54 87.4473 10.9832 86.8271 10.7724C86.207 10.5617 85.2493 10.4555 83.9541 10.4555C82.7995 10.4555 81.763 10.4846 80.8481 10.5395C79.9316 10.596 79.3474 10.6234 79.0939 10.6234C78.5576 10.6234 78.1773 10.4829 77.9529 10.2002C77.7267 9.91929 77.6154 9.5955 77.6154 9.22888V6.27022C78.4034 5.93273 79.4605 5.60894 80.7848 5.29885C82.109 4.98877 83.6303 4.83458 85.3487 4.83458C88.6448 4.83458 91.0124 5.52499 92.4481 6.90581C93.8854 8.28663 94.6032 10.2585 94.6032 12.8231V27.2772H90.5464C90.2364 27.2772 89.9759 27.2566 89.7652 27.2138C89.5545 27.171 89.3781 27.087 89.2376 26.9603C89.0971 26.8335 88.9703 26.657 88.8572 26.4326C88.7442 26.2082 88.6311 25.9255 88.5198 25.588L88.2662 24.9113C87.7026 25.5315 86.9693 26.1225 86.0682 26.6861C85.1654 27.2498 84.0535 27.5307 82.7292 27.5307V27.529ZM87.7163 17.8102H85.0112C84.0809 17.8102 83.4265 18.014 83.0462 18.4235C82.6658 18.8329 82.4757 19.4034 82.4757 20.135C82.4757 21.0087 82.6864 21.6066 83.1095 21.9304C83.5327 22.2542 84.1374 22.4169 84.9272 22.4169C86.0545 22.4169 86.983 22.1359 87.7163 21.5723V17.8119V17.8102Z" fill="#0B7F94"/>
<path d="M30.4997 42.6084V35.5827C30.4997 32.9272 30.4894 30.1862 30.4671 27.3594C30.4449 24.5327 30.4123 21.7368 30.3695 18.9734C30.3266 16.2118 30.2821 13.7277 30.2393 11.5262L24.6697 33.801H18.1939C17.2431 33.801 16.6178 33.5645 16.3163 33.0883C16.0131 32.6137 15.7766 32.0741 15.6036 31.4693L10.7468 11.5245C10.6594 13.8562 10.6063 16.4893 10.584 19.424C10.5617 22.3604 10.5412 25.3499 10.5189 28.3925C10.4966 31.4368 10.4864 34.3937 10.4864 37.2633V44.8715H2.39673C0.79834 44.8715 0 44.116 0 42.605C0 35.6992 0.18331 28.7471 0.54993 21.7539C0.916549 14.7642 1.33799 7.51228 1.81254 0H13.3388C13.9435 0 14.4815 0.152473 14.9577 0.453992C15.4323 0.757224 15.7766 1.38253 15.9942 2.33163L20.7209 22.2764L26.0968 0H37.0406C37.904 0 38.4865 0.21586 38.788 0.647581C39.0895 1.0793 39.2831 1.64122 39.3705 2.33163C39.845 8.50592 40.2545 15.1102 40.6006 22.1462C40.9449 29.184 41.1179 36.7596 41.1179 44.8749H32.8947C31.2963 44.8749 30.498 44.1194 30.498 42.6084H30.4997Z" fill="#0B7F94"/>
<path d="M45.2878 44.7208C44.7807 44.7208 44.5289 44.4878 44.5289 44.0218V31.113C45.2947 30.9674 46.0656 30.856 46.8382 30.7841C47.6109 30.7104 48.3749 30.6744 49.127 30.6744C50.77 30.6744 52 31.0273 52.8224 31.7332C53.643 32.439 54.0541 33.592 54.0541 35.1904C54.0541 35.5244 54.0233 35.8671 53.9616 36.22C53.8999 36.5729 53.7971 36.9121 53.6532 37.2393C53.5093 37.5665 53.3106 37.868 53.0588 38.149C52.8052 38.4283 52.4866 38.6681 52.1045 38.8685C52.3923 39.2283 52.6699 39.6378 52.9354 40.0969C53.2027 40.556 53.4511 41.046 53.6841 41.5651C53.9171 42.0842 54.1295 42.6135 54.3214 43.1532C54.5133 43.6928 54.6709 44.2154 54.7942 44.7225H51.839C51.5923 44.7225 51.3936 44.6762 51.2445 44.582C51.0938 44.4895 50.9773 44.3164 50.895 44.0629C50.6483 43.2646 50.3468 42.4714 49.9922 41.685C49.6358 40.8987 49.3018 40.2339 48.9866 39.6874H48.022V44.7225H45.2929L45.2878 44.7208ZM48.0169 37.1468H49.1048C49.3103 37.1468 49.5056 37.116 49.689 37.056C49.8723 36.996 50.0384 36.8933 50.1824 36.7459C50.3263 36.6003 50.4393 36.3999 50.5216 36.1463C50.6038 35.8928 50.6449 35.5673 50.6449 35.1664C50.6449 34.7398 50.6106 34.4006 50.5421 34.147C50.4736 33.8935 50.3708 33.6982 50.2337 33.5577C50.0967 33.4172 49.9254 33.3247 49.7198 33.2785C49.5142 33.2322 49.2812 33.2082 49.0225 33.2082H48.8067C48.7176 33.2082 48.6251 33.2116 48.5291 33.2185C48.4332 33.2253 48.3373 33.2322 48.2413 33.239C48.1454 33.2459 48.07 33.2493 48.0152 33.2493V37.1468H48.0169Z" fill="#0B7F94"/>
<path d="M65.5255 37.8064C65.5255 39.3517 65.3953 40.5971 65.1349 41.5428C64.8745 42.4885 64.5113 43.2183 64.0471 43.7305C63.5811 44.2428 63.0175 44.5837 62.3545 44.7499C61.6897 44.9161 60.9616 45 60.1684 45C59.3752 45 58.6283 44.9161 57.9722 44.7499C57.316 44.5837 56.7541 44.2445 56.2898 43.7305C55.8238 43.2183 55.4623 42.4885 55.2019 41.5428C54.9415 40.5971 54.8113 39.3517 54.8113 37.8064C54.8113 36.2611 54.9415 35.0156 55.2019 34.0699C55.4623 33.1243 55.8238 32.3945 56.2898 31.8822C56.7541 31.37 57.316 31.0291 57.9722 30.8629C58.6283 30.6967 59.3615 30.6128 60.1684 30.6128C60.9753 30.6128 61.6897 30.6967 62.3545 30.8629C63.0175 31.0291 63.5828 31.37 64.0471 31.8822C64.5113 32.3945 64.8745 33.1243 65.1349 34.0699C65.3953 35.0156 65.5255 36.2611 65.5255 37.8064ZM58.445 37.8064C58.445 38.7521 58.469 39.5144 58.5169 40.0935C58.5649 40.6725 58.6506 41.1231 58.7739 41.4417C58.8973 41.7621 59.072 41.9745 59.2981 42.0808C59.5243 42.187 59.8138 42.2401 60.1702 42.2401C60.5265 42.2401 60.816 42.187 61.0422 42.0808C61.2683 41.9745 61.443 41.7604 61.5664 41.4417C61.6897 41.1214 61.7754 40.6725 61.8234 40.0935C61.8713 39.5144 61.8953 38.7521 61.8953 37.8064C61.8953 36.8607 61.8713 36.1172 61.8234 35.5381C61.7754 34.9591 61.6897 34.5085 61.5664 34.1899C61.443 33.8695 61.2683 33.6536 61.0422 33.5406C60.816 33.4275 60.5248 33.371 60.1702 33.371C59.8155 33.371 59.5243 33.4275 59.2981 33.5406C59.072 33.6536 58.8973 33.8695 58.7739 34.1899C58.6506 34.5102 58.5649 34.9591 58.5169 35.5381C58.469 36.1172 58.445 36.8744 58.445 37.8064Z" fill="#0B7F94"/>
<path d="M71.8472 30.6127C72.3115 30.6127 72.774 30.6522 73.2332 30.7327C73.6923 30.8132 74.0572 30.9194 74.3313 31.053C74.578 31.173 74.7425 31.3134 74.8247 31.4728C74.9069 31.6321 74.9481 31.8462 74.9481 32.1118V33.5903C74.5369 33.5646 74.1309 33.5406 73.7266 33.52C73.3223 33.4995 72.882 33.4892 72.4023 33.4892C71.9226 33.4892 71.5577 33.5526 71.263 33.6793C70.9683 33.8061 70.7354 34.0254 70.5657 34.3389C70.3944 34.6524 70.2779 35.0824 70.2163 35.6272C70.1546 36.1737 70.1238 36.8658 70.1238 37.7053C70.1238 38.5448 70.158 39.2831 70.2265 39.8433C70.2951 40.4036 70.4116 40.849 70.576 41.183C70.7405 41.5154 70.9564 41.7501 71.2219 41.882C71.4892 42.0157 71.8129 42.0825 72.1967 42.0825C72.649 42.0825 73.0619 42.0688 73.4387 42.0431C73.8156 42.0174 74.1189 42.0037 74.3519 42.0037C74.8453 42.0037 75.0902 42.2435 75.0902 42.7232V44.361C74.6243 44.5477 74.1155 44.6968 73.5604 44.8098C73.007 44.9229 72.3115 44.9794 71.4772 44.9794C70.7114 44.9794 70.0192 44.8698 69.4042 44.6488C68.7892 44.4295 68.2615 44.0458 67.823 43.4993C67.3844 42.9528 67.0503 42.2212 66.8173 41.3013C66.5843 40.3813 66.4678 39.2163 66.4678 37.8047C66.4678 36.393 66.5672 35.3069 66.7659 34.3869C66.9647 33.4669 67.2799 32.7285 67.7099 32.1683C68.1416 31.6081 68.6984 31.2089 69.3819 30.9691C70.0655 30.7292 70.8878 30.6093 71.8455 30.6093L71.8472 30.6127Z" fill="#0B7F94"/>
<path d="M85.9072 32.2505C85.6879 32.6771 85.4412 33.1225 85.1688 33.5885C84.8947 34.0545 84.6 34.5154 84.2865 34.9676C83.9713 35.4199 83.6441 35.8602 83.3014 36.2868C82.9588 36.7134 82.6179 37.0988 82.2753 37.4466C82.7395 37.9126 83.1712 38.4334 83.5687 39.0056C83.9644 39.5778 84.3345 40.1774 84.6771 40.8044C85.0198 41.4314 85.3367 42.0773 85.6314 42.742C85.926 43.4084 86.1967 44.068 86.4417 44.7207H83.0753C82.8149 44.7207 82.6196 44.6299 82.4911 44.4518C82.3609 44.2719 82.2478 44.0697 82.1519 43.8419C82.0423 43.5883 81.9052 43.2697 81.7407 42.8825C81.5763 42.497 81.3844 42.0893 81.1668 41.6644C80.9475 41.2379 80.7008 40.8027 80.4284 40.3556C80.1543 39.9101 79.8597 39.487 79.5462 39.0861V44.7207H76.7554C76.2483 44.7207 75.9965 44.4877 75.9965 44.0218V30.8731H78.7872C79.2943 30.8731 79.5462 31.1061 79.5462 31.5721V36.2474C80.2023 35.461 80.7848 34.6181 81.2902 33.7204C81.7956 32.821 82.2684 31.8719 82.707 30.8731H85.5594C85.7513 30.8731 85.902 30.9262 86.0117 31.0325C86.1213 31.1387 86.1762 31.2792 86.1762 31.4522C86.1762 31.5584 86.159 31.6681 86.1248 31.7811C86.0905 31.8942 86.0185 32.0518 85.9089 32.2505H85.9072Z" fill="#0B7F94"/>
<path d="M86.3389 34.8494C86.3389 34.0631 86.4519 33.4001 86.6781 32.8604C86.9042 32.3208 87.228 31.8856 87.6529 31.5516C88.0777 31.2192 88.59 30.9794 89.193 30.832C89.7943 30.6864 90.4728 30.6128 91.2248 30.6128C91.9084 30.6128 92.4943 30.6556 92.9791 30.743C93.464 30.8303 93.8443 30.9263 94.1184 31.0325C94.4747 31.1798 94.682 31.3528 94.7437 31.5516C94.8054 31.752 94.8362 31.9439 94.8362 32.1306V33.5697C94.521 33.556 94.2417 33.5389 93.995 33.52C93.7483 33.4995 93.5085 33.4875 93.2772 33.4806C93.0442 33.4738 92.8113 33.4669 92.58 33.4601C92.347 33.4532 92.0934 33.4498 91.821 33.4498C91.3962 33.4498 91.0518 33.4772 90.7846 33.5303C90.5173 33.5834 90.3083 33.6571 90.1593 33.7496C90.0085 33.8421 89.9057 33.962 89.8509 34.1093C89.7961 34.2567 89.7686 34.416 89.7686 34.589C89.7686 34.7895 89.7926 34.9591 89.8406 35.0978C89.8886 35.2383 89.9845 35.3668 90.1284 35.4867C90.2723 35.6067 90.4848 35.7334 90.764 35.8671C91.045 36.0007 91.4236 36.1669 91.9033 36.3673C92.532 36.6346 93.0631 36.8933 93.4948 37.1468C93.9265 37.4004 94.2743 37.6865 94.5416 38.0051C94.8088 38.3255 95.0007 38.6972 95.1155 39.1238C95.232 39.5504 95.2902 40.0626 95.2902 40.6622C95.2902 41.4212 95.2011 42.0705 95.023 42.6101C94.8448 43.1498 94.5604 43.5969 94.1715 43.9481C93.7809 44.301 93.2789 44.5614 92.6622 44.7276C92.0472 44.8938 91.2934 44.9777 90.4042 44.9777C89.7481 44.9777 89.1313 44.94 88.5574 44.8681C87.9835 44.7944 87.5381 44.6985 87.2229 44.5786C86.9351 44.4723 86.7363 44.3353 86.6284 44.1691C86.5188 44.0029 86.4639 43.8059 86.4639 43.5798V41.9608C86.9984 42.0002 87.5175 42.0311 88.0246 42.0516C88.53 42.0722 89.0508 42.0825 89.5853 42.0825C90.0496 42.0825 90.4299 42.0551 90.7246 42.002C91.0193 41.9488 91.2437 41.8717 91.4013 41.7724C91.5589 41.673 91.6651 41.5462 91.72 41.3921C91.7748 41.2396 91.8022 41.07 91.8022 40.8832C91.8022 40.6434 91.7679 40.4464 91.6994 40.2939C91.6309 40.1414 91.5109 40.001 91.3396 39.8742C91.1683 39.7474 90.9353 39.6206 90.6424 39.4939C90.3477 39.3671 89.9759 39.2112 89.5237 39.0244C88.8812 38.7709 88.3536 38.5122 87.9424 38.245C87.5312 37.9794 87.2109 37.6796 86.9779 37.3455C86.7449 37.0132 86.5804 36.6431 86.4845 36.2371C86.3886 35.8311 86.3406 35.3685 86.3406 34.8477L86.3389 34.8494Z" fill="#0B7F94"/>
</svg>
