<?xml version="1.0" encoding="UTF-8"?>
<svg id="Ebene_1" data-name="Ebene 1" xmlns="http://www.w3.org/2000/svg" viewBox="0 0 247.15 113.53">
  <defs>
    <style>
      .cls-1 {
        fill: #d43238;
        stroke-width: 0px;
      }
    </style>
  </defs>
  <path class="cls-1" d="M154.19,70.85c-2.63,1.05-5.34,1.88-8.11,2.5-4.19.91-8.47,1.32-12.75,1.24-3.92.09-7.83-.49-11.56-1.7-3.14-1.06-5.94-2.93-8.11-5.44-2.3-2.79-3.93-6.06-4.76-9.58-1.1-4.62-1.62-9.36-1.53-14.11,0-10.96,2.06-18.84,6.18-23.64,4.12-4.8,10.56-7.2,19.33-7.2,3.85-.13,7.69.52,11.28,1.93,2.7,1.13,5.06,2.95,6.84,5.27,1.72,2.36,2.89,5.07,3.41,7.94.62,3.27.92,6.59.9,9.92,0,.75,0,1.7-.11,2.83s-.21,2.27-.4,3.4-.39,2.21-.62,3.23c-.16.79-.39,1.57-.68,2.33h-28.56c0,3.85.93,6.51,2.78,8s4.78,2.24,8.78,2.26c3.71,0,6.52,0,8.45-.17s3.61-.17,5.05-.17c1.18-.12,2.36.28,3.23,1.08.7.84,1.05,1.91,1,3l-.04,7.08ZM139.19,38.77c0-4.68-.48-7.92-1.42-9.69s-2.67-2.67-5.16-2.67c-3,0-5.05.95-6.07,2.84s-1.56,5.06-1.64,9.52h14.29Z"/>
  <path class="cls-1" d="M194.89,72.44c-2.03.62-4.09,1.11-6.18,1.47-2.01.32-4.04.47-6.07.46-2.73.03-5.45-.28-8.1-.91-2.28-.55-4.38-1.66-6.12-3.23-1.81-1.72-3.16-3.86-3.92-6.23-.99-3.21-1.45-6.56-1.36-9.92v-25.17h-2.26c-2.8,0-4.2-1.33-4.2-4v-10.63h7.14l.91-14.28h13.15c2.8,0,4.2,1.33,4.2,4v10.28h8.61c2.8,0,4.2,1.33,4.2,4v10.63h-12.81v24.82c0,4,1.77,6,5.32,6h3.29c2.8,0,4.2,1.33,4.2,4v8.71Z"/>
  <path class="cls-1" d="M213.7,73.8c-5.44,0-9.61-1.62-12.52-4.87-2.91-3.25-4.36-7.86-4.37-13.83,0-4.09.66-7.35,2-9.81,1.19-2.32,3.02-4.25,5.27-5.56,2.31-1.28,4.85-2.11,7.48-2.43,2.89-.39,5.81-.58,8.73-.57h6.91v-3.4c0-2.42-.83-3.91-2.49-4.48-2.51-.67-5.11-.96-7.71-.85-3.1,0-5.88.08-8.33.23-2.46.15-4,.22-4.7.22-1.14.12-2.28-.3-3.07-1.13-.6-.74-.91-1.66-.9-2.61v-7.93c2.75-1.11,5.6-1.98,8.5-2.61,4.02-.88,8.13-1.3,12.24-1.25,8.85,0,15.2,1.85,19.05,5.56s5.77,9,5.78,15.87v38.77h-10.89c-.7,0-1.41-.05-2.1-.17-.53-.09-1.02-.33-1.42-.68-.42-.41-.76-.89-1-1.42-.35-.73-.65-1.49-.91-2.26l-.68-1.82c-1.74,1.85-3.72,3.45-5.89,4.76-2.72,1.6-5.83,2.39-8.98,2.27ZM227.08,47.73h-7.25c-2.5,0-4.26.54-5.28,1.64-1.1,1.28-1.66,2.94-1.55,4.63,0,2.34.57,3.95,1.7,4.82,1.44.96,3.15,1.41,4.88,1.3,2.68.11,5.31-.69,7.48-2.26l.02-10.13Z"/>
  <path class="cls-1" d="M75.75,107v-17.45c0-6.6-.03-13.41-.08-20.43-.05-7.02-.13-13.96-.24-20.83-.11-6.86-.22-13.02-.32-18.49l-13.83,55.33h-16.09c-2.36,0-3.91-.59-4.66-1.77-.78-1.24-1.37-2.59-1.77-4l-12.06-49.56c-.22,5.79-.35,12.33-.4,19.62-.05,7.29-.1,14.71-.16,22.28-.06,7.56-.09,14.89-.08,22v18.9H6c-4,.02-6-1.85-6-5.6,0-17.15.46-34.42,1.37-51.79C2.28,37.84,3.33,19.84,4.5,1.21h28.63c1.41-.02,2.8.38,4,1.13,1.19.73,2.06,2.28,2.6,4.66l11.74,49.5L64.82,1.17h27.18c2.14,0,3.59.54,4.34,1.61.82,1.27,1.32,2.72,1.45,4.22,1.18,15.33,2.18,31.74,3,49.22.82,17.48,1.25,36.3,1.29,56.45h-20.38c-3.96-.04-5.95-1.92-5.95-5.67Z"/>
  <path class="cls-1" d="M122.22,82.07c1.01,0,2.01.09,3,.26.83.13,1.63.36,2.4.7.45.18.83.5,1.08.92.2.44.29.92.27,1.4v3.24l-2.67-.16c-.89,0-1.85-.06-2.9-.06-.85-.03-1.69.11-2.49.41-.66.29-1.2.8-1.53,1.45-.43.88-.69,1.84-.76,2.82-.16,1.51-.23,3.02-.21,4.54-.02,1.56.06,3.13.23,4.68.09,1.01.35,2,.76,2.93.29.66.79,1.19,1.42,1.53.66.31,1.4.47,2.13.44,1,0,1.89,0,2.72-.08s1.49-.09,2-.09c.76-.12,1.48.4,1.6,1.16.02.14.02.27,0,.41v3.59c-1.08.44-2.2.77-3.34,1-1.5.27-3.03.4-4.56.37-1.54.02-3.08-.22-4.54-.72-1.37-.49-2.57-1.36-3.46-2.51-1.07-1.43-1.82-3.07-2.2-4.81-.56-2.51-.82-5.09-.76-7.66-.05-2.51.17-5.02.65-7.48.32-1.75,1.02-3.41,2.06-4.85.94-1.22,2.22-2.13,3.67-2.62,1.75-.58,3.58-.85,5.42-.81Z"/>
  <path class="cls-1" d="M152.45,82.64c1.11,0,1.66.51,1.66,1.53v28.83h-6.2c-1.1,0-1.66-.51-1.66-1.53v-10.9h-6.65v12.43h-6.2c-1.11,0-1.66-.51-1.66-1.53v-28.83h6.2c1.11,0,1.66.51,1.66,1.53v10.14h6.65v-11.67h6.2Z"/>
  <path class="cls-1" d="M170.92,105.51h-6.29c-.18,1.34-.35,2.67-.5,4s-.25,2.46-.31,3.46h-6c-.37.01-.74-.13-1-.4-.3-.37-.44-.84-.39-1.31-.01-.28-.01-.55,0-.83.03-.28.07-.56.13-.83.81-4.78,1.72-9.37,2.75-13.78,1.03-4.46,2.32-8.85,3.86-13.16h8.13c.46-.05.93.11,1.26.43.23.28.41.59.54.92,1.47,4.36,2.7,8.79,3.68,13.28,1.11,4.94,2.11,10.17,3,15.68h-6.48c-.87.05-1.62-.62-1.67-1.49,0-.03,0-.06,0-.09l-.71-5.88ZM167.77,88.23c-.63,2.45-1.13,4.61-1.5,6.5-.37,1.89-.72,3.67-1.06,5.36h5.12l-1.05-5.36c-.38-1.88-.88-4.05-1.51-6.5Z"/>
  <path class="cls-1" d="M183.41,113c-1.11,0-1.67-.51-1.67-1.53v-28.31c1.68-.32,3.36-.56,5.06-.72s3.36-.24,5-.24c3.59,0,6.29.77,8.08,2.32s2.7,4.07,2.7,7.56c0,.76-.07,1.51-.2,2.26-.14.77-.36,1.52-.68,2.23-.68,1.55-1.88,2.81-3.39,3.56.67.85,1.28,1.75,1.82,2.69.6,1.05,1.15,2.12,1.64,3.22.51,1.13,1,2.29,1.39,3.47.39,1.13.73,2.28,1,3.44h-6.47c-.46.02-.91-.09-1.31-.31-.38-.28-.65-.68-.76-1.14-.56-1.77-1.22-3.51-2-5.2-.78-1.72-1.51-3.18-2.2-4.38h-2.11v11l-5.9.08ZM189.41,96.42h2.38c.43,0,.87-.07,1.28-.2.41-.13.78-.36,1.08-.67.34-.38.6-.83.74-1.32.2-.7.29-1.42.27-2.14.02-.75-.05-1.5-.22-2.23-.11-.48-.35-.92-.68-1.29-.3-.31-.69-.52-1.12-.61-.5-.11-1.02-.16-1.53-.16h-2.2v8.62Z"/>
  <path class="cls-1" d="M211,88.89h-5.66c-1.11,0-1.66-.51-1.66-1.53v-4.72h20.8c1.1,0,1.66.51,1.66,1.53v4.72h-7.28v24.11h-6.2c-1.11,0-1.66-.51-1.66-1.53v-22.58Z"/>
  <path class="cls-1" d="M227.57,91.34c-.05-1.48.21-2.96.74-4.35.45-1.12,1.18-2.11,2.13-2.87,1-.76,2.15-1.29,3.37-1.57,1.46-.34,2.95-.5,4.45-.48,1.29-.02,2.57.08,3.84.28.85.13,1.68.35,2.49.64.78.32,1.24.7,1.37,1.13.14.41.21.84.21,1.27v3.15c-.69,0-1.31-.06-1.85-.11l-1.57-.09h-3.19c-.76-.01-1.52.05-2.27.17-.48.08-.95.25-1.37.49-.31.17-.54.45-.67.78-.12.32-.18.66-.18,1-.01.38.04.76.16,1.12.12.34.34.63.62.85.43.33.9.61,1.4.83.61.29,1.44.66,2.49,1.09,1.19.5,2.36,1.07,3.48,1.71.87.49,1.64,1.12,2.29,1.88.6.71,1.03,1.55,1.26,2.45.28,1.1.4,2.23.38,3.37.03,1.44-.16,2.88-.58,4.26-.35,1.13-1,2.14-1.87,2.93-.95.82-2.08,1.41-3.3,1.71-1.62.39-3.28.57-4.94.54-1.34,0-2.67-.08-4-.24-.99-.1-1.97-.31-2.92-.63-.52-.15-.98-.47-1.31-.9-.25-.38-.37-.83-.36-1.29v-3.54c1.17.09,2.31.15,3.42.2s2.25.06,3.41.06c.84.01,1.67-.05,2.5-.17.52-.08,1.02-.25,1.48-.51.32-.19.57-.48.7-.83.12-.36.19-.73.18-1.11.01-.44-.06-.88-.23-1.29-.18-.37-.45-.69-.79-.92-.47-.33-.98-.61-1.52-.83l-2.45-1c-1.21-.45-2.37-1.02-3.46-1.7-.83-.52-1.54-1.2-2.11-2-.51-.73-.88-1.56-1.08-2.43-.23-1-.35-2.02-.35-3.05Z"/>
</svg>