<?xml version="1.0" encoding="UTF-8"?>
<svg id="Ebene_1" data-name="Ebene 1" xmlns="http://www.w3.org/2000/svg" xmlns:xlink="http://www.w3.org/1999/xlink" viewBox="0 0 565.2 98.44">
  <defs>
    <style>
      .cls-1 {
        fill: #535a69;
      }

      .cls-1, .cls-2, .cls-3 {
        stroke-width: 0px;
      }

      .cls-2 {
        fill: none;
      }

      .cls-4 {
        clip-path: url(#clippath);
      }

      .cls-3 {
        fill: #fc507c;
      }
    </style>
    <clipPath id="clippath">
      <rect class="cls-2" x="0" width="565.18" height="98.44"/>
    </clipPath>
  </defs>
  <g class="cls-4">
    <g>
      <path class="cls-3" d="M125.92,38.07c-1.55-8.3-5.67-15.9-11.81-21.7v.31l-9.96,8.71c-2.09-6.03-6.1-11.22-11.41-14.77-7.6-5.61-18.29-3.99-23.9,3.59-.36.47-.68.98-.98,1.48-6.38,9.38-4.76,17.2,2.4,29.84,8.74,15.51,9.8,28.16,0,42.88-2.54,3.8-5.67,7.16-9.25,10,3.36-.21,6.72-.6,10.04-1.17,34.93-6.18,59.53-32.68,54.88-59.17l-.02.02Z"/>
      <path class="cls-3" d="M19.46,69.89c2.27,7.58,7.03,14.17,13.5,18.7,10.32,7.01,21.1,3.93,27.96-6.02,6.23-9.21,5.79-17.56-1.3-29.77-8.71-14.56-10.75-28.55-1.34-42.56,2.71-4.03,6.15-7.5,10.16-10.24-4.27.11-8.54.54-12.75,1.3C20.63,7.48-4.02,33.98.54,60.36c1.26,6.86,4.32,13.27,8.9,18.54l10-9.02h.02Z"/>
      <path class="cls-1" d="M146.67,86.47c-2.79,0-4.17-1.34-4.17-3.93V9.29c4.22-.83,8.48-1.45,12.75-1.84,4.19-.42,8.4-.64,12.6-.64,7.29-.54,14.53,1.58,20.35,5.98,4.55,4.01,6.82,10.58,6.82,19.68,0,1.97-.16,3.93-.51,5.87-.34,1.97-.91,3.9-1.7,5.76-.82,1.89-1.92,3.64-3.31,5.15-1.5,1.6-3.28,2.94-5.23,3.93,1.7,2.22,3.21,4.53,4.57,6.96,1.47,2.69,2.79,5.46,3.93,8.32,1.3,2.95,2.48,5.95,3.51,9.02,1.03,3.07,1.92,6.02,2.64,8.9h-16.11c-1.14.05-2.27-.23-3.26-.78-.96-.73-1.65-1.78-1.92-2.95-1.45-4.55-3.16-9-5.15-13.35-1.97-4.48-3.82-8.27-5.54-11.33h-5.15v28.55l-15.08-.03-.02-.02ZM161.76,43.5h5.98c1.11,0,2.22-.16,3.26-.51,1.03-.36,1.96-.95,2.72-1.73.88-.98,1.52-2.15,1.84-3.42.55-1.79.85-3.67.83-5.54.07-1.92-.13-3.86-.55-5.76-.28-1.24-.86-2.4-1.7-3.34-.77-.8-1.74-1.37-2.84-1.61-1.29-.26-2.61-.41-3.93-.39h-1.17l-1.61.08h-2.84v22.24-.02Z"/>
      <path class="cls-1" d="M258.41,47.25c.16,7.13-.55,14.23-2.17,21.18-1.03,4.55-3.08,8.82-6.02,12.44-2.46,2.82-5.71,4.83-9.33,5.76-7.94,1.89-16.22,1.89-24.18,0-3.6-.93-6.85-2.94-9.29-5.76-2.94-3.64-5.01-7.89-6.02-12.44-1.6-6.95-2.33-14.06-2.17-21.18-.18-7.16.55-14.3,2.17-21.26,1.03-4.55,3.1-8.79,6.02-12.41,2.45-2.8,5.69-4.79,9.29-5.71,7.94-1.89,16.22-1.89,24.18,0,3.64.93,6.88,2.95,9.33,5.79,2.92,3.6,4.99,7.81,6.02,12.33,1.61,6.96,2.33,14.1,2.17,21.26ZM219.31,47.25c0,5.4,0,9.69.39,13,.15,2.59.62,5.17,1.42,7.63.46,1.53,1.48,2.84,2.87,3.62,3.1,1.21,6.54,1.21,9.65,0,1.4-.78,2.43-2.09,2.87-3.62.82-2.48,1.29-5.04,1.42-7.63.28-3.31.39-7.6.39-13s0-9.57-.39-12.83c-.1-2.67-.59-5.33-1.42-7.88-.44-1.55-1.48-2.85-2.87-3.67-3.08-1.3-6.57-1.3-9.65,0-1.39.82-2.41,2.12-2.87,3.67-.82,2.54-1.29,5.2-1.42,7.88-.28,3.39-.39,7.57-.39,12.83Z"/>
      <path class="cls-1" d="M316.66,82.49v-41.35c0-4.84,0-9.18-.23-13.03l-10.08,38.99h-11.22c-1.24.18-2.48-.29-3.26-1.26-.55-.88-.98-1.83-1.26-2.84l-8.51-34.89c0,3.93-.23,8.71-.28,13.83-.05,5.12,0,10.35,0,15.75v28.83h-14.17c-2.79,0-4.2-1.34-4.2-3.93,0-12.08.36-24.26.98-36.46.62-12.2,1.39-24.93,2.2-38.07h20.04c1.01-.03,1.99.24,2.84.78,1.01.8,1.66,1.99,1.81,3.26l8.27,34.93,9.41-38.99h19.14c1.16-.18,2.32.26,3.06,1.14.59.86.93,1.88,1.03,2.92.83,10.83,1.53,22.37,2.17,34.68.63,12.31.91,25.55.91,39.77h-14.44c-2.68-.08-4.18-1.5-4.18-4.06h-.03Z"/>
      <path class="cls-1" d="M375.68,67.21h-15.75c-.44,3.47-.86,6.9-1.25,10.32-.39,3.42-.64,6.38-.78,8.94h-15.28c-.96.03-1.89-.34-2.56-1.03-.72-.98-1.06-2.19-.95-3.39-.03-.72-.03-1.45,0-2.17.08-.73.2-1.45.36-2.17,2.31-12.36,4.4-24.18,7.01-35.68,2.59-11.54,5.84-22.93,9.72-34.09h20.51c1.17-.15,2.35.28,3.15,1.14.59.7,1.06,1.5,1.39,2.36,3.7,11.23,6.8,22.65,9.29,34.21,2.81,12.82,5.3,26.35,7.48,40.63h-16.34c-2.4,0-3.93-1.39-4.17-3.93l-1.81-15.16-.02.02ZM367.81,22.44c-1.61,6.34-2.87,11.81-3.93,16.81-1.06,5.01-1.81,9.52-2.64,13.89h12.91c-.87-4.37-1.73-9.02-2.67-13.89-.95-4.88-2.12-10.47-3.7-16.81h.03Z"/>
      <path class="cls-1" d="M458.52,86.47h-15.75c-1.01-.08-1.96-.59-2.56-1.42-.72-.83-1.27-1.79-1.65-2.84-1.5-3.93-3.06-7.88-4.65-11.81-1.58-3.93-3.19-7.88-4.81-11.81l-4.65-10.44c-1.53-3.47-3.03-6.57-4.48-9.29v47.61h-13.83c-2.79,0-4.18-1.34-4.18-3.93V7.96h14.61c1.11,0,2.17.44,2.95,1.22.8.85,1.48,1.79,2,2.84l4.37,8.98c1.61,3.31,3.26,6.77,4.92,10.4,1.66,3.64,3.34,7.32,5,11.07,1.66,3.75,3.15,7.37,4.53,10.83V7.96h13.83c2.79,0,4.21,1.3,4.21,3.93l.11,74.58Z"/>
      <path class="cls-1" d="M494.63,6.29c2.64,0,5.28.23,7.87.7,2.1.29,4.14.91,6.07,1.81,1.12.49,2.09,1.3,2.72,2.36.49,1.14.72,2.38.67,3.62v8.38l-6.73-.39h-7.32c-2.15-.07-4.29.29-6.29,1.06-1.71.73-3.12,2.07-3.93,3.73-1.11,2.3-1.76,4.78-1.92,7.32-.39,3.93-.55,7.88-.51,11.81-.03,4.04.15,8.1.55,12.13.24,2.63.9,5.19,1.92,7.6.7,1.7,1.97,3.08,3.59,3.93,1.66.82,3.51,1.21,5.35,1.14,2.62,0,4.91-.08,6.85-.23,2.09,0,3.93-.2,5.09-.2,1.97-.21,3.73,1.22,3.93,3.2.03.24.03.51,0,.75v9.29c-2.73,1.11-5.55,1.97-8.43,2.56-3.8.7-7.65,1.01-11.49.95-3.9.07-7.78-.55-11.46-1.84-3.47-1.3-6.51-3.57-8.74-6.54-2.69-3.72-4.58-7.96-5.54-12.44-1.39-6.47-2.01-13.08-1.89-19.68-.11-6.49.42-12.98,1.62-19.37.76-4.55,2.53-8.85,5.15-12.64,2.32-3.15,5.53-5.51,9.21-6.82,4.4-1.52,9.05-2.27,13.7-2.2h-.02Z"/>
      <path class="cls-1" d="M560.03,7.96c2.79,0,4.18,1.3,4.18,3.93v11.81h-27.56v14.97h19.93c2.79,0,4.21,1.3,4.21,3.93v11.81h-24.13v16.65h24.38c2.79,0,4.18,1.3,4.18,3.93v11.81h-43.47c-2.79,0-4.18-1.34-4.18-3.93V7.96h42.49-.02Z"/>
    </g>
  </g>
</svg>